<svg class="marks" width="2342.4" height="686" viewBox="0 0 2342.4 686" version="1.1" xmlns="http://www.w3.org/2000/svg" xmlns:xlink="http://www.w3.org/1999/xlink"><g transform="translate(0,0)"><g class="mark-group role-frame root"><g transform="translate(0,0)"><path class="background" d="M0,0h2342.4v686h-2342.4Z" style="fill: none;"></path><g><g class="mark-path role-mark" style="pointer-events: none;"><path transform="translate(0,0)" d="M231.53024360143198,449.9437773009536C231.53024360143198,234.01435562765246 212.4567057919698,234.01435562765246 212.4567057919698,18.0849339543513" style="fill: none; stroke: #ccc; stroke-width: 0.5;"></path><path transform="translate(0,0)" d="M464.44927218593,90.0341893047689C464.44927218593,54.0595616295601 212.4567057919698,54.0595616295601 212.4567057919698,18.0849339543513" style="fill: none; stroke: #ccc; stroke-width: 0.5;"></path><path transform="translate(0,0)" d="M103.48356434254836,234.0089170519919C103.48356434254836,126.0469255031716 212.4567057919698,126.0469255031716 212.4567057919698,18.0849339543513" style="fill: none; stroke: #ccc; stroke-width: 0.5;"></path><path transform="translate(0,0)" d="M536.5799908707315,162.07952668889234C536.5799908707315,126.05685799683062 464.44927218593,126.05685799683062 464.44927218593,90.0341893047689" style="fill: none; stroke: #ccc; stroke-width: 0.5;"></path><path transform="translate(0,0)" d="M1082.3425091838385,162.07562691960575C1082.3425091838385,126.05490811218732 464.44927218593,126.05490811218732 464.44927218593,90.0341893047689" style="fill: none; stroke: #ccc; stroke-width: 0.5;"></path><path transform="translate(0,0)" d="M231.53024360143198,449.9437773009536C231.53024360143198,269.98898330286124 464.44927218593,269.98898330286124 464.44927218593,90.0341893047689" style="fill: none; stroke: #ccc; stroke-width: 0.5;"></path><path transform="translate(0,0)" d="M1206.4419046352114,665.8804835467837C1206.4419046352114,413.980005117838 536.5799908707315,413.980005117838 536.5799908707315,162.07952668889234" style="fill: none; stroke: #ccc; stroke-width: 0.5;"></path><path transform="translate(0,0)" d="M792.5260364119763,378.0049562488729C792.5260364119763,270.0422414688826 536.5799908707315,270.0422414688826 536.5799908707315,162.07952668889234" style="fill: none; stroke: #ccc; stroke-width: 0.5;"></path><path transform="translate(0,0)" d="M1082.4462431638403,234.02952937201232C1082.4462431638403,198.05452803045233 536.5799908707315,198.05452803045233 536.5799908707315,162.07952668889234" style="fill: none; stroke: #ccc; stroke-width: 0.5;"></path><path transform="translate(0,0)" d="M1206.4419046352114,665.8804835467837C1206.4419046352114,413.9780552331947 1082.3425091838385,413.9780552331947 1082.3425091838385,162.07562691960575" style="fill: none; stroke: #ccc; stroke-width: 0.5;"></path><path transform="translate(0,0)" d="M792.5260364119763,378.0049562488729C792.5260364119763,270.0402915842393 1082.3425091838385,270.0402915842393 1082.3425091838385,162.07562691960575" style="fill: none; stroke: #ccc; stroke-width: 0.5;"></path><path transform="translate(0,0)" d="M1082.4462431638403,234.02952937201232C1082.4462431638403,198.05257814580904 1082.3425091838385,198.05257814580904 1082.3425091838385,162.07562691960575" style="fill: none; stroke: #ccc; stroke-width: 0.5;"></path><path transform="translate(0,0)" d="M1206.4419046352114,665.8804835467837C1206.4419046352114,629.9411657841539 1206.3999930193306,629.9411657841539 1206.3999930193306,594.0018480215241" style="fill: none; stroke: #ccc; stroke-width: 0.5;"></path><path transform="translate(0,0)" d="M1206.3999930193306,594.0018480215241C1206.3999930193306,557.9863409223437 1206.4243820439058,557.9863409223437 1206.4243820439058,521.9708338231635" style="fill: none; stroke: #ccc; stroke-width: 0.5;"></path><path transform="translate(0,0)" d="M1206.4419046352114,665.8804835467837C1206.4419046352114,557.9121304238687 231.53024360143198,557.9121304238687 231.53024360143198,449.9437773009536" style="fill: none; stroke: #ccc; stroke-width: 0.5;"></path><path transform="translate(0,0)" d="M1206.4419046352114,665.8804835467837C1206.4419046352114,449.955006459398 1082.4462431638403,449.955006459398 1082.4462431638403,234.02952937201232" style="fill: none; stroke: #ccc; stroke-width: 0.5;"></path><path transform="translate(0,0)" d="M1554.34707671862,306.05179070184266C1554.34707671862,270.0406600369275 1082.4462431638403,270.0406600369275 1082.4462431638403,234.02952937201232" style="fill: none; stroke: #ccc; stroke-width: 0.5;"></path><path transform="translate(0,0)" d="M1206.4419046352114,665.8804835467837C1206.4419046352114,521.9427198978283 792.5260364119763,521.9427198978283 792.5260364119763,378.0049562488729" style="fill: none; stroke: #ccc; stroke-width: 0.5;"></path><path transform="translate(0,0)" d="M807.5967653426569,450.010165398598C807.5967653426569,414.00756082373545 792.5260364119763,414.00756082373545 792.5260364119763,378.0049562488729" style="fill: none; stroke: #ccc; stroke-width: 0.5;"></path><path transform="translate(0,0)" d="M1595.2803398510064,450.0081962906408C1595.2803398510064,414.0065762697568 792.5260364119763,414.0065762697568 792.5260364119763,378.0049562488729" style="fill: none; stroke: #ccc; stroke-width: 0.5;"></path><path transform="translate(0,0)" d="M231.53024360143198,449.9437773009536C231.53024360143198,413.9743667749133 792.5260364119763,413.9743667749133 792.5260364119763,378.0049562488729" style="fill: none; stroke: #ccc; stroke-width: 0.5;"></path><path transform="translate(0,0)" d="M1206.4243820439058,521.9708338231635C1206.4243820439058,449.9878950360182 792.5260364119763,449.9878950360182 792.5260364119763,378.0049562488729" style="fill: none; stroke: #ccc; stroke-width: 0.5;"></path><path transform="translate(0,0)" d="M1206.4419046352114,665.8804835467837C1206.4419046352114,629.9444136327061 1662.289035314685,629.9444136327061 1662.289035314685,594.0083437186286" style="fill: none; stroke: #ccc; stroke-width: 0.5;"></path><path transform="translate(0,0)" d="M1206.4419046352114,665.8804835467837C1206.4419046352114,593.9379275930776 1686.3259168051693,593.9379275930776 1686.3259168051693,521.9953716393715" style="fill: none; stroke: #ccc; stroke-width: 0.5;"></path><path transform="translate(0,0)" d="M1662.289035314685,594.0083437186286C1662.289035314685,558.0018576790001 1686.3259168051693,558.0018576790001 1686.3259168051693,521.9953716393715" style="fill: none; stroke: #ccc; stroke-width: 0.5;"></path><path transform="translate(0,0)" d="M1206.4419046352114,665.8804835467837C1206.4419046352114,557.9487123285376 1206.4510307715282,557.9487123285376 1206.4510307715282,450.01694111029144" style="fill: none; stroke: #ccc; stroke-width: 0.5;"></path><path transform="translate(0,0)" d="M1206.4243820439058,521.9708338231635C1206.4243820439058,485.9938874667275 1206.4510307715282,485.9938874667275 1206.4510307715282,450.01694111029144" style="fill: none; stroke: #ccc; stroke-width: 0.5;"></path><path transform="translate(0,0)" d="M1206.4419046352114,665.8804835467837C1206.4419046352114,557.9443399187122 1595.2803398510064,557.9443399187122 1595.2803398510064,450.0081962906408" style="fill: none; stroke: #ccc; stroke-width: 0.5;"></path><path transform="translate(0,0)" d="M1686.3259168051693,521.9953716393715C1686.3259168051693,486.0017839650061 1595.2803398510064,486.0017839650061 1595.2803398510064,450.0081962906408" style="fill: none; stroke: #ccc; stroke-width: 0.5;"></path><path transform="translate(0,0)" d="M1206.4419046352114,665.8804835467837C1206.4419046352114,485.96613712431315 1554.34707671862,485.96613712431315 1554.34707671862,306.05179070184266" style="fill: none; stroke: #ccc; stroke-width: 0.5;"></path><path transform="translate(0,0)" d="M792.5260364119763,378.0049562488729C792.5260364119763,342.02837347535774 1554.34707671862,342.02837347535774 1554.34707671862,306.05179070184266" style="fill: none; stroke: #ccc; stroke-width: 0.5;"></path><path transform="translate(0,0)" d="M1206.4510307715282,450.01694111029144C1206.4510307715282,378.034365906067 1554.34707671862,378.034365906067 1554.34707671862,306.05179070184266" style="fill: none; stroke: #ccc; stroke-width: 0.5;"></path><path transform="translate(0,0)" d="M1951.1251567409984,450.0228021194012C1951.1251567409984,378.03729641062193 1554.34707671862,378.03729641062193 1554.34707671862,306.05179070184266" style="fill: none; stroke: #ccc; stroke-width: 0.5;"></path><path transform="translate(0,0)" d="M807.5967653426569,450.010165398598C807.5967653426569,378.03097805022037 1554.34707671862,378.03097805022037 1554.34707671862,306.05179070184266" style="fill: none; stroke: #ccc; stroke-width: 0.5;"></path><path transform="translate(0,0)" d="M1595.2803398510064,450.0081962906408C1595.2803398510064,378.02999349624173 1554.34707671862,378.02999349624173 1554.34707671862,306.05179070184266" style="fill: none; stroke: #ccc; stroke-width: 0.5;"></path><path transform="translate(0,0)" d="M1686.3259168051693,521.9953716393715C1686.3259168051693,414.02358117060703 1554.34707671862,414.02358117060703 1554.34707671862,306.05179070184266" style="fill: none; stroke: #ccc; stroke-width: 0.5;"></path><path transform="translate(0,0)" d="M2221.9741255388185,521.9843000262448C2221.9741255388185,414.0180453640437 1554.34707671862,414.0180453640437 1554.34707671862,306.05179070184266" style="fill: none; stroke: #ccc; stroke-width: 0.5;"></path><path transform="translate(0,0)" d="M1206.4243820439058,521.9708338231635C1206.4243820439058,414.0113122625031 1554.34707671862,414.0113122625031 1554.34707671862,306.05179070184266" style="fill: none; stroke: #ccc; stroke-width: 0.5;"></path><path transform="translate(0,0)" d="M1206.4419046352114,665.8804835467837C1206.4419046352114,557.9453244726908 807.5967653426569,557.9453244726908 807.5967653426569,450.010165398598" style="fill: none; stroke: #ccc; stroke-width: 0.5;"></path><path transform="translate(0,0)" d="M1206.4243820439058,521.9708338231635C1206.4243820439058,485.99049961088076 807.5967653426569,485.99049961088076 807.5967653426569,450.010165398598" style="fill: none; stroke: #ccc; stroke-width: 0.5;"></path><path transform="translate(0,0)" d="M1206.4419046352114,665.8804835467837C1206.4419046352114,413.99411978011165 1554.2884645005183,413.99411978011165 1554.2884645005183,162.10775601343963" style="fill: none; stroke: #ccc; stroke-width: 0.5;"></path><path transform="translate(0,0)" d="M1554.34707671862,306.05179070184266C1554.34707671862,234.07977335764116 1554.2884645005183,234.07977335764116 1554.2884645005183,162.10775601343963" style="fill: none; stroke: #ccc; stroke-width: 0.5;"></path><path transform="translate(0,0)" d="M1082.4462431638403,234.02952937201232C1082.4462431638403,198.06864269272597 1554.2884645005183,198.06864269272597 1554.2884645005183,162.10775601343963" style="fill: none; stroke: #ccc; stroke-width: 0.5;"></path><path transform="translate(0,0)" d="M1206.4419046352114,665.8804835467837C1206.4419046352114,557.9516428330925 1951.1251567409984,557.9516428330925 1951.1251567409984,450.0228021194012" style="fill: none; stroke: #ccc; stroke-width: 0.5;"></path><path transform="translate(0,0)" d="M1206.4243820439058,521.9708338231635C1206.4243820439058,485.9968179712823 1951.1251567409984,485.9968179712823 1951.1251567409984,450.0228021194012" style="fill: none; stroke: #ccc; stroke-width: 0.5;"></path><path transform="translate(0,0)" d="M231.53024360143198,449.9437773009536C231.53024360143198,341.97634717647276 103.48356434254836,341.97634717647276 103.48356434254836,234.0089170519919" style="fill: none; stroke: #ccc; stroke-width: 0.5;"></path><path transform="translate(0,0)" d="M231.53024360143198,449.9437773009536C231.53024360143198,413.98772029322174 73.51263877683871,413.98772029322174 73.51263877683871,378.03166328548986" style="fill: none; stroke: #ccc; stroke-width: 0.5;"></path><path transform="translate(0,0)" d="M1206.4419046352114,665.8804835467837C1206.4419046352114,593.9323917865142 2221.9741255388185,593.9323917865142 2221.9741255388185,521.9843000262448" style="fill: none; stroke: #ccc; stroke-width: 0.5;"></path></g><g class="mark-symbol role-mark nodes"><path transform="translate(212.4567057919698,18.0849339543513)" d="M5,0A5,5,0,1,1,-5,0A5,5,0,1,1,5,0" style="fill: #3182bd;"></path><path transform="translate(464.44927218593,90.0341893047689)" d="M5,0A5,5,0,1,1,-5,0A5,5,0,1,1,5,0" style="fill: #6baed6;"></path><path transform="translate(536.5799908707315,162.07952668889234)" d="M5,0A5,5,0,1,1,-5,0A5,5,0,1,1,5,0" style="fill: #9ecae1;"></path><path transform="translate(1082.3425091838385,162.07562691960575)" d="M5,0A5,5,0,1,1,-5,0A5,5,0,1,1,5,0" style="fill: #c6dbef;"></path><path transform="translate(1206.3999930193306,594.0018480215241)" d="M5,0A5,5,0,1,1,-5,0A5,5,0,1,1,5,0" style="fill: #e6550d;"></path><path transform="translate(1206.4243820439058,521.9708338231635)" d="M5,0A5,5,0,1,1,-5,0A5,5,0,1,1,5,0" style="fill: #fd8d3c;"></path><path transform="translate(231.53024360143198,449.9437773009536)" d="M5,0A5,5,0,1,1,-5,0A5,5,0,1,1,5,0" style="fill: #fdae6b;"></path><path transform="translate(1082.4462431638403,234.02952937201232)" d="M5,0A5,5,0,1,1,-5,0A5,5,0,1,1,5,0" style="fill: #fdd0a2;"></path><path transform="translate(792.5260364119763,378.0049562488729)" d="M5,0A5,5,0,1,1,-5,0A5,5,0,1,1,5,0" style="fill: #31a354;"></path><path transform="translate(1662.289035314685,594.0083437186286)" d="M5,0A5,5,0,1,1,-5,0A5,5,0,1,1,5,0" style="fill: #74c476;"></path><path transform="translate(1686.3259168051693,521.9953716393715)" d="M5,0A5,5,0,1,1,-5,0A5,5,0,1,1,5,0" style="fill: #a1d99b;"></path><path transform="translate(1206.4510307715282,450.01694111029144)" d="M5,0A5,5,0,1,1,-5,0A5,5,0,1,1,5,0" style="fill: #c7e9c0;"></path><path transform="translate(1595.2803398510064,450.0081962906408)" d="M5,0A5,5,0,1,1,-5,0A5,5,0,1,1,5,0" style="fill: #756bb1;"></path><path transform="translate(1554.34707671862,306.05179070184266)" d="M5,0A5,5,0,1,1,-5,0A5,5,0,1,1,5,0" style="fill: #9e9ac8;"></path><path transform="translate(807.5967653426569,450.010165398598)" d="M5,0A5,5,0,1,1,-5,0A5,5,0,1,1,5,0" style="fill: #bcbddc;"></path><path transform="translate(1554.2884645005183,162.10775601343963)" d="M5,0A5,5,0,1,1,-5,0A5,5,0,1,1,5,0" style="fill: #dadaeb;"></path><path transform="translate(1951.1251567409984,450.0228021194012)" d="M5,0A5,5,0,1,1,-5,0A5,5,0,1,1,5,0" style="fill: #636363;"></path><path transform="translate(103.48356434254836,234.0089170519919)" d="M5,0A5,5,0,1,1,-5,0A5,5,0,1,1,5,0" style="fill: #969696;"></path><path transform="translate(73.51263877683871,378.03166328548986)" d="M5,0A5,5,0,1,1,-5,0A5,5,0,1,1,5,0" style="fill: #bdbdbd;"></path><path transform="translate(2221.9741255388185,521.9843000262448)" d="M5,0A5,5,0,1,1,-5,0A5,5,0,1,1,5,0" style="fill: #d9d9d9;"></path><path transform="translate(1206.4419046352114,665.8804835467837)" d="M5,0A5,5,0,1,1,-5,0A5,5,0,1,1,5,0" style="fill: #3182bd;"></path></g><g class="mark-text role-mark labels"><text text-anchor="start" transform="translate(217.44,13)" style="font-family: sans-serif; font-size: 11px; font-weight: normal; fill: black;">Clean_the_data</text><text text-anchor="start" transform="translate(469.44,85)" style="font-family: sans-serif; font-size: 11px; font-weight: normal; fill: black;">HuGo_removal_pt1_alignment</text><text text-anchor="start" transform="translate(541.44,157)" style="font-family: sans-serif; font-size: 11px; font-weight: normal; fill: black;">HuGo_removal_pt2_extract_paired_unmapped_reads</text><text text-anchor="start" transform="translate(1087.4,157)" style="font-family: sans-serif; font-size: 11px; font-weight: normal; fill: black;">HuGo_removal_pt3_extract_unpaired_unmapped_reads</text><text text-anchor="start" transform="translate(1211.4,589)" style="font-family: sans-serif; font-size: 11px; font-weight: normal; fill: black;">Illumina_HTML_IGVJs_generate_final</text><text text-anchor="start" transform="translate(1211.4,517)" style="font-family: sans-serif; font-size: 11px; font-weight: normal; fill: black;">Illumina_HTML_IGVJs_variable_parts</text><text text-anchor="start" transform="translate(236.44,445)" style="font-family: sans-serif; font-size: 11px; font-weight: normal; fill: black;">Illumina_MultiQC_report</text><text text-anchor="start" transform="translate(1087.4,229)" style="font-family: sans-serif; font-size: 11px; font-weight: normal; fill: black;">Illumina_align_to_reference_it1</text><text text-anchor="start" transform="translate(797.44,373)" style="font-family: sans-serif; font-size: 11px; font-weight: normal; fill: black;">Illumina_align_to_reference_it2</text><text text-anchor="start" transform="translate(1667.4,589)" style="font-family: sans-serif; font-size: 11px; font-weight: normal; fill: black;">Illumina_concat_BoC_metrics</text><text text-anchor="start" transform="translate(1691.4,517)" style="font-family: sans-serif; font-size: 11px; font-weight: normal; fill: black;">Illumina_determine_BoC_at_diff_cov_thresholds</text><text text-anchor="start" transform="translate(1211.4,445)" style="font-family: sans-serif; font-size: 11px; font-weight: normal; fill: black;">Illumina_determine_GC_content</text><text text-anchor="start" transform="translate(1600.4,445)" style="font-family: sans-serif; font-size: 11px; font-weight: normal; fill: black;">Illumina_extract_clean_consensus</text><text text-anchor="start" transform="translate(1559.4,301)" style="font-family: sans-serif; font-size: 11px; font-weight: normal; fill: black;">Illumina_extract_raw_consensus_it1</text><text text-anchor="start" transform="translate(812.44,445)" style="font-family: sans-serif; font-size: 11px; font-weight: normal; fill: black;">Illumina_extract_raw_consensus_it2</text><text text-anchor="start" transform="translate(1559.4,157)" style="font-family: sans-serif; font-size: 11px; font-weight: normal; fill: black;">Illumina_index_reference</text><text text-anchor="start" transform="translate(1956.4,445)" style="font-family: sans-serif; font-size: 11px; font-weight: normal; fill: black;">Illumina_reference_ORF_analysis</text><text text-anchor="start" transform="translate(108.44,229)" style="font-family: sans-serif; font-size: 11px; font-weight: normal; fill: black;">QC_clean_data</text><text text-anchor="start" transform="translate(78.443,373)" style="font-family: sans-serif; font-size: 11px; font-weight: normal; fill: black;">QC_raw_data</text><text text-anchor="start" transform="translate(2227.4,517)" style="font-family: sans-serif; font-size: 11px; font-weight: normal; fill: black;">SNP_table</text><text text-anchor="start" transform="translate(1211.4,661)" style="font-family: sans-serif; font-size: 11px; font-weight: normal; fill: black;">all</text></g></g></g></g></g></svg>