<svg class="marks" width="1864" height="974" viewBox="0 0 1864 974" version="1.1" xmlns="http://www.w3.org/2000/svg" xmlns:xlink="http://www.w3.org/1999/xlink"><g transform="translate(0,0)"><g class="mark-group role-frame root"><g transform="translate(0,0)"><path class="background" d="M0,0h1864v974h-1864Z" style="fill: none;"></path><g><g class="mark-path role-mark" style="pointer-events: none;"><path transform="translate(0,0)" d="M1642.912924618881,593.9631865238374C1642.912924618881,306.03689050049104 1713.9600980940954,306.03689050049104 1713.9600980940954,18.110594477144684" style="fill: none; stroke: #ccc; stroke-width: 0.5;"></path><path transform="translate(0,0)" d="M1426.9532211241187,90.0525830684393C1426.9532211241187,54.081588772791996 1713.9600980940954,54.081588772791996 1713.9600980940954,18.110594477144684" style="fill: none; stroke: #ccc; stroke-width: 0.5;"></path><path transform="translate(0,0)" d="M1713.9840825597994,234.04616969541996C1713.9840825597994,126.07838208628232 1713.9600980940954,126.07838208628232 1713.9600980940954,18.110594477144684" style="fill: none; stroke: #ccc; stroke-width: 0.5;"></path><path transform="translate(0,0)" d="M834.997996704216,953.8422652888647C834.997996704216,881.9315054447495 1229.9626960619844,881.9315054447495 1229.9626960619844,810.0207456006343" style="fill: none; stroke: #ccc; stroke-width: 0.5;"></path><path transform="translate(0,0)" d="M1417.9176345969215,881.9653449836088C1417.9176345969215,845.9930452921216 1229.9626960619844,845.9930452921216 1229.9626960619844,810.0207456006343" style="fill: none; stroke: #ccc; stroke-width: 0.5;"></path><path transform="translate(0,0)" d="M1229.9525567233,881.8917760907788C1229.9525567233,845.9562608457065 1229.9626960619844,845.9562608457065 1229.9626960619844,810.0207456006343" style="fill: none; stroke: #ccc; stroke-width: 0.5;"></path><path transform="translate(0,0)" d="M834.997996704216,953.8422652888647C834.997996704216,845.9347213258748 369.1350701511051,845.9347213258748 369.1350701511051,738.0271773628847" style="fill: none; stroke: #ccc; stroke-width: 0.5;"></path><path transform="translate(0,0)" d="M834.997996704216,953.8422652888647C834.997996704216,593.9781663831878 562.0568067087153,593.9781663831878 562.0568067087153,234.11406747751099" style="fill: none; stroke: #ccc; stroke-width: 0.5;"></path><path transform="translate(0,0)" d="M457.05812333284155,594.018576433855C457.05812333284155,414.06632195568295 562.0568067087153,414.06632195568295 562.0568067087153,234.11406747751099" style="fill: none; stroke: #ccc; stroke-width: 0.5;"></path><path transform="translate(0,0)" d="M1022.9881402446027,522.0133318585456C1022.9881402446027,378.0636996680283 562.0568067087153,378.0636996680283 562.0568067087153,234.11406747751099" style="fill: none; stroke: #ccc; stroke-width: 0.5;"></path><path transform="translate(0,0)" d="M664.0571508291283,522.0455466056559C664.0571508291283,378.0798070415834 562.0568067087153,378.0798070415834 562.0568067087153,234.11406747751099" style="fill: none; stroke: #ccc; stroke-width: 0.5;"></path><path transform="translate(0,0)" d="M300.12976934288446,665.9884576110601C300.12976934288446,450.0512625442855 562.0568067087153,450.0512625442855 562.0568067087153,234.11406747751099" style="fill: none; stroke: #ccc; stroke-width: 0.5;"></path><path transform="translate(0,0)" d="M219.17749762658414,306.1033395314454C219.17749762658414,270.10870350447817 562.0568067087153,270.10870350447817 562.0568067087153,234.11406747751099" style="fill: none; stroke: #ccc; stroke-width: 0.5;"></path><path transform="translate(0,0)" d="M1133.9101658567197,737.9648627612559C1133.9101658567197,486.0394651193834 562.0568067087153,486.0394651193834 562.0568067087153,234.11406747751099" style="fill: none; stroke: #ccc; stroke-width: 0.5;"></path><path transform="translate(0,0)" d="M1054.9354804384031,593.9757705795614C1054.9354804384031,414.0449190285362 562.0568067087153,414.0449190285362 562.0568067087153,234.11406747751099" style="fill: none; stroke: #ccc; stroke-width: 0.5;"></path><path transform="translate(0,0)" d="M643.9888342795446,737.9400369493471C643.9888342795446,486.02705221342904 562.0568067087153,486.02705221342904 562.0568067087153,234.11406747751099" style="fill: none; stroke: #ccc; stroke-width: 0.5;"></path><path transform="translate(0,0)" d="M834.997996704216,953.8422652888647C834.997996704216,809.9153614499623 300.12976934288446,809.9153614499623 300.12976934288446,665.9884576110601" style="fill: none; stroke: #ccc; stroke-width: 0.5;"></path><path transform="translate(0,0)" d="M643.9888342795446,737.9400369493471C643.9888342795446,701.9642472802036 300.12976934288446,701.9642472802036 300.12976934288446,665.9884576110601" style="fill: none; stroke: #ccc; stroke-width: 0.5;"></path><path transform="translate(0,0)" d="M1133.9101658567197,737.9648627612559C1133.9101658567197,665.9703166704087 1054.9354804384031,665.9703166704087 1054.9354804384031,593.9757705795614" style="fill: none; stroke: #ccc; stroke-width: 0.5;"></path><path transform="translate(0,0)" d="M939.0096733750441,666.0064853706706C939.0096733750441,629.991127975116 1054.9354804384031,629.991127975116 1054.9354804384031,593.9757705795614" style="fill: none; stroke: #ccc; stroke-width: 0.5;"></path><path transform="translate(0,0)" d="M834.997996704216,953.8422652888647C834.997996704216,881.9330179776464 644.0455815307598,881.9330179776464 644.0455815307598,810.0237706664279" style="fill: none; stroke: #ccc; stroke-width: 0.5;"></path><path transform="translate(0,0)" d="M644.0455815307598,810.0237706664279C644.0455815307598,773.9819038078875 643.9888342795446,773.9819038078875 643.9888342795446,737.9400369493471" style="fill: none; stroke: #ccc; stroke-width: 0.5;"></path><path transform="translate(0,0)" d="M1318.8760733918525,162.14297173279132C1318.8760733918525,126.09777740061531 1426.9532211241187,126.09777740061531 1426.9532211241187,90.0525830684393" style="fill: none; stroke: #ccc; stroke-width: 0.5;"></path><path transform="translate(0,0)" d="M300.2532066448292,162.1578604141585C300.2532066448292,126.1052217412989 1426.9532211241187,126.1052217412989 1426.9532211241187,90.0525830684393" style="fill: none; stroke: #ccc; stroke-width: 0.5;"></path><path transform="translate(0,0)" d="M1642.912924618881,593.9631865238374C1642.912924618881,342.00788479613834 1426.9532211241187,342.00788479613834 1426.9532211241187,90.0525830684393" style="fill: none; stroke: #ccc; stroke-width: 0.5;"></path><path transform="translate(0,0)" d="M834.997996704216,953.8422652888647C834.997996704216,557.992618510828 1318.8760733918525,557.992618510828 1318.8760733918525,162.14297173279132" style="fill: none; stroke: #ccc; stroke-width: 0.5;"></path><path transform="translate(0,0)" d="M562.0568067087153,234.11406747751099C562.0568067087153,198.12851960515115 1318.8760733918525,198.12851960515115 1318.8760733918525,162.14297173279132" style="fill: none; stroke: #ccc; stroke-width: 0.5;"></path><path transform="translate(0,0)" d="M1022.9881402446027,522.0133318585456C1022.9881402446027,342.0781517956685 1318.8760733918525,342.0781517956685 1318.8760733918525,162.14297173279132" style="fill: none; stroke: #ccc; stroke-width: 0.5;"></path><path transform="translate(0,0)" d="M1229.9525567233,881.8917760907788C1229.9525567233,522.0173739117851 1318.8760733918525,522.0173739117851 1318.8760733918525,162.14297173279132" style="fill: none; stroke: #ccc; stroke-width: 0.5;"></path><path transform="translate(0,0)" d="M834.997996704216,953.8422652888647C834.997996704216,558.0000628515116 300.2532066448292,558.0000628515116 300.2532066448292,162.1578604141585" style="fill: none; stroke: #ccc; stroke-width: 0.5;"></path><path transform="translate(0,0)" d="M562.0568067087153,234.11406747751099C562.0568067087153,198.13596394583476 300.2532066448292,198.13596394583476 300.2532066448292,162.1578604141585" style="fill: none; stroke: #ccc; stroke-width: 0.5;"></path><path transform="translate(0,0)" d="M1229.9525567233,881.8917760907788C1229.9525567233,522.0248182524687 300.2532066448292,522.0248182524687 300.2532066448292,162.1578604141585" style="fill: none; stroke: #ccc; stroke-width: 0.5;"></path><path transform="translate(0,0)" d="M834.997996704216,953.8422652888647C834.997996704216,881.9260085635925 993.953330557031,881.9260085635925 993.953330557031,810.0097518383203" style="fill: none; stroke: #ccc; stroke-width: 0.5;"></path><path transform="translate(0,0)" d="M834.997996704216,953.8422652888647C834.997996704216,845.9035640250603 1133.9101658567197,845.9035640250603 1133.9101658567197,737.9648627612559" style="fill: none; stroke: #ccc; stroke-width: 0.5;"></path><path transform="translate(0,0)" d="M1229.9626960619844,810.0207456006343C1229.9626960619844,773.9928041809451 1133.9101658567197,773.9928041809451 1133.9101658567197,737.9648627612559" style="fill: none; stroke: #ccc; stroke-width: 0.5;"></path><path transform="translate(0,0)" d="M834.997996704216,953.8422652888647C834.997996704216,773.9027259063511 1642.912924618881,773.9027259063511 1642.912924618881,593.9631865238374" style="fill: none; stroke: #ccc; stroke-width: 0.5;"></path><path transform="translate(0,0)" d="M1417.9176345969215,881.9653449836088C1417.9176345969215,737.9642657537231 1642.912924618881,737.9642657537231 1642.912924618881,593.9631865238374" style="fill: none; stroke: #ccc; stroke-width: 0.5;"></path><path transform="translate(0,0)" d="M1229.9525567233,881.8917760907788C1229.9525567233,737.9274813073081 1642.912924618881,737.9274813073081 1642.912924618881,593.9631865238374" style="fill: none; stroke: #ccc; stroke-width: 0.5;"></path><path transform="translate(0,0)" d="M834.997996704216,953.8422652888647C834.997996704216,737.9439059472603 664.0571508291283,737.9439059472603 664.0571508291283,522.0455466056559" style="fill: none; stroke: #ccc; stroke-width: 0.5;"></path><path transform="translate(0,0)" d="M1133.9101658567197,737.9648627612559C1133.9101658567197,630.0052046834559 664.0571508291283,630.0052046834559 664.0571508291283,522.0455466056559" style="fill: none; stroke: #ccc; stroke-width: 0.5;"></path><path transform="translate(0,0)" d="M1054.9354804384031,593.9757705795614C1054.9354804384031,558.0106585926087 664.0571508291283,558.0106585926087 664.0571508291283,522.0455466056559" style="fill: none; stroke: #ccc; stroke-width: 0.5;"></path><path transform="translate(0,0)" d="M643.9888342795446,737.9400369493471C643.9888342795446,629.9927917775015 664.0571508291283,629.9927917775015 664.0571508291283,522.0455466056559" style="fill: none; stroke: #ccc; stroke-width: 0.5;"></path><path transform="translate(0,0)" d="M1642.912924618881,593.9631865238374C1642.912924618881,414.0046781096287 1713.9840825597994,414.0046781096287 1713.9840825597994,234.04616969541996" style="fill: none; stroke: #ccc; stroke-width: 0.5;"></path><path transform="translate(0,0)" d="M1642.912924618881,593.9631865238374C1642.912924618881,557.9969146926028 1743.956934823703,557.9969146926028 1743.956934823703,522.0306428613683" style="fill: none; stroke: #ccc; stroke-width: 0.5;"></path><path transform="translate(0,0)" d="M834.997996704216,953.8422652888647C834.997996704216,737.9277985737051 1022.9881402446027,737.9277985737051 1022.9881402446027,522.0133318585456" style="fill: none; stroke: #ccc; stroke-width: 0.5;"></path><path transform="translate(0,0)" d="M457.05812333284155,594.018576433855C457.05812333284155,558.0159541462003 1022.9881402446027,558.0159541462003 1022.9881402446027,522.0133318585456" style="fill: none; stroke: #ccc; stroke-width: 0.5;"></path><path transform="translate(0,0)" d="M1642.912924618881,593.9631865238374C1642.912924618881,557.9882591911914 1022.9881402446027,557.9882591911914 1022.9881402446027,522.0133318585456" style="fill: none; stroke: #ccc; stroke-width: 0.5;"></path><path transform="translate(0,0)" d="M1054.9354804384031,593.9757705795614C1054.9354804384031,557.9945512190535 1022.9881402446027,557.9945512190535 1022.9881402446027,522.0133318585456" style="fill: none; stroke: #ccc; stroke-width: 0.5;"></path><path transform="translate(0,0)" d="M643.9888342795446,737.9400369493471C643.9888342795446,629.9766844039464 1022.9881402446027,629.9766844039464 1022.9881402446027,522.0133318585456" style="fill: none; stroke: #ccc; stroke-width: 0.5;"></path><path transform="translate(0,0)" d="M1353.9244223477149,593.9911987935039C1353.9244223477149,558.0022653260248 1022.9881402446027,558.0022653260248 1022.9881402446027,522.0133318585456" style="fill: none; stroke: #ccc; stroke-width: 0.5;"></path><path transform="translate(0,0)" d="M834.997996704216,953.8422652888647C834.997996704216,773.9304208613598 457.05812333284155,773.9304208613598 457.05812333284155,594.018576433855" style="fill: none; stroke: #ccc; stroke-width: 0.5;"></path><path transform="translate(0,0)" d="M300.12976934288446,665.9884576110601C300.12976934288446,630.0035170224576 457.05812333284155,630.0035170224576 457.05812333284155,594.018576433855" style="fill: none; stroke: #ccc; stroke-width: 0.5;"></path><path transform="translate(0,0)" d="M369.1350701511051,738.0271773628847C369.1350701511051,666.0228768983698 457.05812333284155,666.0228768983698 457.05812333284155,594.018576433855" style="fill: none; stroke: #ccc; stroke-width: 0.5;"></path><path transform="translate(0,0)" d="M643.9888342795446,737.9400369493471C643.9888342795446,665.9793066916011 457.05812333284155,665.9793066916011 457.05812333284155,594.018576433855" style="fill: none; stroke: #ccc; stroke-width: 0.5;"></path><path transform="translate(0,0)" d="M834.997996704216,953.8422652888647C834.997996704216,629.972802410155 219.17749762658414,629.972802410155 219.17749762658414,306.1033395314454" style="fill: none; stroke: #ccc; stroke-width: 0.5;"></path><path transform="translate(0,0)" d="M464.9603849678288,377.99538939892915C464.9603849678288,342.0493644651873 219.17749762658414,342.0493644651873 219.17749762658414,306.1033395314454" style="fill: none; stroke: #ccc; stroke-width: 0.5;"></path><path transform="translate(0,0)" d="M468.03614037125345,522.002771518216C468.03614037125345,486.00138172246295 467.99969952231436,486.00138172246295 467.99969952231436,449.9999919267098" style="fill: none; stroke: #ccc; stroke-width: 0.5;"></path><path transform="translate(0,0)" d="M1229.9525567233,881.8917760907788C1229.9525567233,773.9640359605177 1333.9810208289794,773.9640359605177 1333.9810208289794,666.0362958302566" style="fill: none; stroke: #ccc; stroke-width: 0.5;"></path><path transform="translate(0,0)" d="M1333.9810208289794,666.0362958302566C1333.9810208289794,630.0137473118803 1353.9244223477149,630.0137473118803 1353.9244223477149,593.9911987935039" style="fill: none; stroke: #ccc; stroke-width: 0.5;"></path><path transform="translate(0,0)" d="M834.997996704216,953.8422652888647C834.997996704216,917.9038051362368 1417.9176345969215,917.9038051362368 1417.9176345969215,881.9653449836088" style="fill: none; stroke: #ccc; stroke-width: 0.5;"></path><path transform="translate(0,0)" d="M1133.9101658567197,737.9648627612559C1133.9101658567197,701.9856740659632 939.0096733750441,701.9856740659632 939.0096733750441,666.0064853706706" style="fill: none; stroke: #ccc; stroke-width: 0.5;"></path><path transform="translate(0,0)" d="M993.953330557031,810.0097518383203C993.953330557031,738.0081186044954 939.0096733750441,738.0081186044954 939.0096733750441,666.0064853706706" style="fill: none; stroke: #ccc; stroke-width: 0.5;"></path><path transform="translate(0,0)" d="M467.99969952231436,449.9999919267098C467.99969952231436,413.9976906628195 464.9603849678288,413.9976906628195 464.9603849678288,377.99538939892915" style="fill: none; stroke: #ccc; stroke-width: 0.5;"></path><path transform="translate(0,0)" d="M939.0096733750441,666.0064853706706C939.0096733750441,630.0047091618012 733.0003489659646,630.0047091618012 733.0003489659646,594.0029329529317" style="fill: none; stroke: #ccc; stroke-width: 0.5;"></path><path transform="translate(0,0)" d="M834.997996704216,953.8422652888647C834.997996704216,917.8670206898217 1229.9525567233,917.8670206898217 1229.9525567233,881.8917760907788" style="fill: none; stroke: #ccc; stroke-width: 0.5;"></path><path transform="translate(0,0)" d="M733.0003489659646,594.0029329529317C733.0003489659646,558.0028522355739 468.03614037125345,558.0028522355739 468.03614037125345,522.002771518216" style="fill: none; stroke: #ccc; stroke-width: 0.5;"></path></g><g class="mark-symbol role-mark nodes"><path transform="translate(1713.9600980940954,18.110594477144684)" d="M5,0A5,5,0,1,1,-5,0A5,5,0,1,1,5,0" style="fill: #3182bd;"></path><path transform="translate(1229.9626960619844,810.0207456006343)" d="M5,0A5,5,0,1,1,-5,0A5,5,0,1,1,5,0" style="fill: #6baed6;"></path><path transform="translate(369.1350701511051,738.0271773628847)" d="M5,0A5,5,0,1,1,-5,0A5,5,0,1,1,5,0" style="fill: #9ecae1;"></path><path transform="translate(562.0568067087153,234.11406747751099)" d="M5,0A5,5,0,1,1,-5,0A5,5,0,1,1,5,0" style="fill: #c6dbef;"></path><path transform="translate(300.12976934288446,665.9884576110601)" d="M5,0A5,5,0,1,1,-5,0A5,5,0,1,1,5,0" style="fill: #e6550d;"></path><path transform="translate(1054.9354804384031,593.9757705795614)" d="M5,0A5,5,0,1,1,-5,0A5,5,0,1,1,5,0" style="fill: #fd8d3c;"></path><path transform="translate(644.0455815307598,810.0237706664279)" d="M5,0A5,5,0,1,1,-5,0A5,5,0,1,1,5,0" style="fill: #fdae6b;"></path><path transform="translate(643.9888342795446,737.9400369493471)" d="M5,0A5,5,0,1,1,-5,0A5,5,0,1,1,5,0" style="fill: #fdd0a2;"></path><path transform="translate(1426.9532211241187,90.0525830684393)" d="M5,0A5,5,0,1,1,-5,0A5,5,0,1,1,5,0" style="fill: #31a354;"></path><path transform="translate(1318.8760733918525,162.14297173279132)" d="M5,0A5,5,0,1,1,-5,0A5,5,0,1,1,5,0" style="fill: #74c476;"></path><path transform="translate(300.2532066448292,162.1578604141585)" d="M5,0A5,5,0,1,1,-5,0A5,5,0,1,1,5,0" style="fill: #a1d99b;"></path><path transform="translate(993.953330557031,810.0097518383203)" d="M5,0A5,5,0,1,1,-5,0A5,5,0,1,1,5,0" style="fill: #c7e9c0;"></path><path transform="translate(1133.9101658567197,737.9648627612559)" d="M5,0A5,5,0,1,1,-5,0A5,5,0,1,1,5,0" style="fill: #756bb1;"></path><path transform="translate(1642.912924618881,593.9631865238374)" d="M5,0A5,5,0,1,1,-5,0A5,5,0,1,1,5,0" style="fill: #9e9ac8;"></path><path transform="translate(664.0571508291283,522.0455466056559)" d="M5,0A5,5,0,1,1,-5,0A5,5,0,1,1,5,0" style="fill: #bcbddc;"></path><path transform="translate(1713.9840825597994,234.04616969541996)" d="M5,0A5,5,0,1,1,-5,0A5,5,0,1,1,5,0" style="fill: #dadaeb;"></path><path transform="translate(1743.956934823703,522.0306428613683)" d="M5,0A5,5,0,1,1,-5,0A5,5,0,1,1,5,0" style="fill: #636363;"></path><path transform="translate(1022.9881402446027,522.0133318585456)" d="M5,0A5,5,0,1,1,-5,0A5,5,0,1,1,5,0" style="fill: #969696;"></path><path transform="translate(457.05812333284155,594.018576433855)" d="M5,0A5,5,0,1,1,-5,0A5,5,0,1,1,5,0" style="fill: #bdbdbd;"></path><path transform="translate(219.17749762658414,306.1033395314454)" d="M5,0A5,5,0,1,1,-5,0A5,5,0,1,1,5,0" style="fill: #d9d9d9;"></path><path transform="translate(467.99969952231436,449.9999919267098)" d="M5,0A5,5,0,1,1,-5,0A5,5,0,1,1,5,0" style="fill: #3182bd;"></path><path transform="translate(834.997996704216,953.8422652888647)" d="M5,0A5,5,0,1,1,-5,0A5,5,0,1,1,5,0" style="fill: #6baed6;"></path><path transform="translate(1333.9810208289794,666.0362958302566)" d="M5,0A5,5,0,1,1,-5,0A5,5,0,1,1,5,0" style="fill: #9ecae1;"></path><path transform="translate(1353.9244223477149,593.9911987935039)" d="M5,0A5,5,0,1,1,-5,0A5,5,0,1,1,5,0" style="fill: #c6dbef;"></path><path transform="translate(1417.9176345969215,881.9653449836088)" d="M5,0A5,5,0,1,1,-5,0A5,5,0,1,1,5,0" style="fill: #e6550d;"></path><path transform="translate(939.0096733750441,666.0064853706706)" d="M5,0A5,5,0,1,1,-5,0A5,5,0,1,1,5,0" style="fill: #fd8d3c;"></path><path transform="translate(464.9603849678288,377.99538939892915)" d="M5,0A5,5,0,1,1,-5,0A5,5,0,1,1,5,0" style="fill: #fdae6b;"></path><path transform="translate(733.0003489659646,594.0029329529317)" d="M5,0A5,5,0,1,1,-5,0A5,5,0,1,1,5,0" style="fill: #fdd0a2;"></path><path transform="translate(1229.9525567233,881.8917760907788)" d="M5,0A5,5,0,1,1,-5,0A5,5,0,1,1,5,0" style="fill: #31a354;"></path><path transform="translate(468.03614037125345,522.002771518216)" d="M5,0A5,5,0,1,1,-5,0A5,5,0,1,1,5,0" style="fill: #74c476;"></path></g><g class="mark-text role-mark labels"><text text-anchor="start" transform="translate(1719,13)" style="font-family: sans-serif; font-size: 11px; font-weight: normal; fill: black;">Clean_the_data</text><text text-anchor="start" transform="translate(1235,805)" style="font-family: sans-serif; font-size: 11px; font-weight: normal; fill: black;">Concat_files</text><text text-anchor="start" transform="translate(374,733)" style="font-family: sans-serif; font-size: 11px; font-weight: normal; fill: black;">Concat_filtered_SNPs</text><text text-anchor="start" transform="translate(567,229)" style="font-family: sans-serif; font-size: 11px; font-weight: normal; fill: black;">De_novo_assembly</text><text text-anchor="start" transform="translate(305,661)" style="font-family: sans-serif; font-size: 11px; font-weight: normal; fill: black;">Determine_GC_content</text><text text-anchor="start" transform="translate(1060,589)" style="font-family: sans-serif; font-size: 11px; font-weight: normal; fill: black;">Generate_contigs_metrics</text><text text-anchor="start" transform="translate(649,805)" style="font-family: sans-serif; font-size: 11px; font-weight: normal; fill: black;">HTML_IGVJs_generate_final</text><text text-anchor="start" transform="translate(649,733)" style="font-family: sans-serif; font-size: 11px; font-weight: normal; fill: black;">HTML_IGVJs_variable_parts</text><text text-anchor="start" transform="translate(1432,85)" style="font-family: sans-serif; font-size: 11px; font-weight: normal; fill: black;">HuGo_removal_pt1_alignment</text><text text-anchor="start" transform="translate(1324,157)" style="font-family: sans-serif; font-size: 11px; font-weight: normal; fill: black;">HuGo_removal_pt2_extract_paired_unmapped_reads</text><text text-anchor="start" transform="translate(305,157)" style="font-family: sans-serif; font-size: 11px; font-weight: normal; fill: black;">HuGo_removal_pt3_extract_unpaired_unmapped_reads</text><text text-anchor="start" transform="translate(999,805)" style="font-family: sans-serif; font-size: 11px; font-weight: normal; fill: black;">Krona_chart_combine</text><text text-anchor="start" transform="translate(1139,733)" style="font-family: sans-serif; font-size: 11px; font-weight: normal; fill: black;">Merge_all_metrics_into_single_tsv</text><text text-anchor="start" transform="translate(1648,589)" style="font-family: sans-serif; font-size: 11px; font-weight: normal; fill: black;">MultiQC_report</text><text text-anchor="start" transform="translate(669,517)" style="font-family: sans-serif; font-size: 11px; font-weight: normal; fill: black;">ORF_analysis</text><text text-anchor="start" transform="translate(1719,229)" style="font-family: sans-serif; font-size: 11px; font-weight: normal; fill: black;">QC_clean_data</text><text text-anchor="start" transform="translate(1749,517)" style="font-family: sans-serif; font-size: 11px; font-weight: normal; fill: black;">QC_raw_data</text><text text-anchor="start" transform="translate(1028,517)" style="font-family: sans-serif; font-size: 11px; font-weight: normal; fill: black;">Read2scaffold_alignment_with_rmDup_and_fraglength</text><text text-anchor="start" transform="translate(462,589)" style="font-family: sans-serif; font-size: 11px; font-weight: normal; fill: black;">SNP_calling</text><text text-anchor="start" transform="translate(224,301)" style="font-family: sans-serif; font-size: 11px; font-weight: normal; fill: black;">Scaffold_classification</text><text text-anchor="start" transform="translate(473,445)" style="font-family: sans-serif; font-size: 11px; font-weight: normal; fill: black;">addtaxa_gff</text><text text-anchor="start" transform="translate(840,949)" style="font-family: sans-serif; font-size: 11px; font-weight: normal; fill: black;">all</text><text text-anchor="start" transform="translate(1339,661)" style="font-family: sans-serif; font-size: 11px; font-weight: normal; fill: black;">concatenate_read_counts</text><text text-anchor="start" transform="translate(1359,589)" style="font-family: sans-serif; font-size: 11px; font-weight: normal; fill: black;">count_mapped_reads</text><text text-anchor="start" transform="translate(1423,877)" style="font-family: sans-serif; font-size: 11px; font-weight: normal; fill: black;">draw_heatmaps</text><text text-anchor="start" transform="translate(944,661)" style="font-family: sans-serif; font-size: 11px; font-weight: normal; fill: black;">lca_mgkit</text><text text-anchor="start" transform="translate(470,373)" style="font-family: sans-serif; font-size: 11px; font-weight: normal; fill: black;">make_gff</text><text text-anchor="start" transform="translate(738,589)" style="font-family: sans-serif; font-size: 11px; font-weight: normal; fill: black;">qfilter_gff</text><text text-anchor="start" transform="translate(1235,877)" style="font-family: sans-serif; font-size: 11px; font-weight: normal; fill: black;">quantify_output</text><text text-anchor="start" transform="translate(473,517)" style="font-family: sans-serif; font-size: 11px; font-weight: normal; fill: black;">taxfilter_gff</text></g></g></g></g></g></svg>