<svg class="marks" width="1819" height="686" viewBox="0 0 1819 686" version="1.1" xmlns="http://www.w3.org/2000/svg" xmlns:xlink="http://www.w3.org/1999/xlink"><g transform="translate(0,0)"><g class="mark-group role-frame root"><g transform="translate(0,0)"><path class="background" d="M0,0h1819v686h-1819Z" style="fill: none;"></path><g><g class="mark-path role-mark" style="pointer-events: none;"><path transform="translate(0,0)" d="M974.9924516830453,90.05319354551085C974.9924516830453,54.03717177275543 974.9899999998922,54.03717177275543 974.9899999998922,18.02115" style="fill: none; stroke: #ccc; stroke-width: 0.5;"></path><path transform="translate(0,0)" d="M210.2296703446003,593.9676686316093C210.2296703446003,486.0097191802216 577.0159845802214,486.0097191802216 577.0159845802214,378.0517697288339" style="fill: none; stroke: #ccc; stroke-width: 0.5;"></path><path transform="translate(0,0)" d="M91.29045947123765,450.0363061028721C91.29045947123765,414.044037915853 577.0159845802214,414.044037915853 577.0159845802214,378.0517697288339" style="fill: none; stroke: #ccc; stroke-width: 0.5;"></path><path transform="translate(0,0)" d="M416.12847435060837,593.9691451710072C416.12847435060837,486.0104574499205 577.0159845802214,486.0104574499205 577.0159845802214,378.0517697288339" style="fill: none; stroke: #ccc; stroke-width: 0.5;"></path><path transform="translate(0,0)" d="M666.0100315797591,593.9685796746764C666.0100315797591,486.0101747017552 577.0159845802214,486.0101747017552 577.0159845802214,378.0517697288339" style="fill: none; stroke: #ccc; stroke-width: 0.5;"></path><path transform="translate(0,0)" d="M446.1133160742326,522.0036102137894C446.1133160742326,450.0276899713117 577.0159845802214,450.0276899713117 577.0159845802214,378.0517697288339" style="fill: none; stroke: #ccc; stroke-width: 0.5;"></path><path transform="translate(0,0)" d="M1583.9169814210438,521.9762114529287C1583.9169814210438,450.01399059088135 577.0159845802214,450.01399059088135 577.0159845802214,378.0517697288339" style="fill: none; stroke: #ccc; stroke-width: 0.5;"></path><path transform="translate(0,0)" d="M1273.978557003985,449.99905613613015C1273.978557003985,414.025412932482 577.0159845802214,414.025412932482 577.0159845802214,378.0517697288339" style="fill: none; stroke: #ccc; stroke-width: 0.5;"></path><path transform="translate(0,0)" d="M694.9647699064735,449.99407285130906C694.9647699064735,414.0229212900715 577.0159845802214,414.0229212900715 577.0159845802214,378.0517697288339" style="fill: none; stroke: #ccc; stroke-width: 0.5;"></path><path transform="translate(0,0)" d="M1361.8611422070794,522.0236146591202C1361.8611422070794,486.0113353976252 1273.978557003985,486.0113353976252 1273.978557003985,449.99905613613015" style="fill: none; stroke: #ccc; stroke-width: 0.5;"></path><path transform="translate(0,0)" d="M1583.9169814210438,521.9762114529287C1583.9169814210438,485.9876337945294 1273.978557003985,485.9876337945294 1273.978557003985,449.99905613613015" style="fill: none; stroke: #ccc; stroke-width: 0.5;"></path><path transform="translate(0,0)" d="M899.9973365252596,521.992452014837C899.9973365252596,342.0139909755055 899.9773572533549,342.0139909755055 899.9773572533549,162.03552993617407" style="fill: none; stroke: #ccc; stroke-width: 0.5;"></path><path transform="translate(0,0)" d="M724.0122685108045,233.9964560670314C724.0122685108045,198.01599300160274 899.9773572533549,198.01599300160274 899.9773572533549,162.03552993617407" style="fill: none; stroke: #ccc; stroke-width: 0.5;"></path><path transform="translate(0,0)" d="M1049.9739138926789,593.954706976122C1049.9739138926789,342.0039502608164 974.9924516830453,342.0039502608164 974.9924516830453,90.05319354551085" style="fill: none; stroke: #ccc; stroke-width: 0.5;"></path><path transform="translate(0,0)" d="M899.9773572533549,162.03552993617407C899.9773572533549,126.04436174084246 974.9924516830453,126.04436174084246 974.9924516830453,90.05319354551085" style="fill: none; stroke: #ccc; stroke-width: 0.5;"></path><path transform="translate(0,0)" d="M844.9613094648997,665.9492551736394C844.9613094648997,629.9773946766304 1517.8465481909643,629.9773946766304 1517.8465481909643,594.0055341796215" style="fill: none; stroke: #ccc; stroke-width: 0.5;"></path><path transform="translate(0,0)" d="M1517.8465481909643,594.0055341796215C1517.8465481909643,557.9908728162751 1583.9169814210438,557.9908728162751 1583.9169814210438,521.9762114529287" style="fill: none; stroke: #ccc; stroke-width: 0.5;"></path><path transform="translate(0,0)" d="M674.9761404515162,306.0063577595395C674.9761404515162,270.00140691328545 724.0122685108045,270.00140691328545 724.0122685108045,233.9964560670314" style="fill: none; stroke: #ccc; stroke-width: 0.5;"></path><path transform="translate(0,0)" d="M577.0159845802214,378.0517697288339C577.0159845802214,342.0290637441867 674.9761404515162,342.0290637441867 674.9761404515162,306.0063577595395" style="fill: none; stroke: #ccc; stroke-width: 0.5;"></path><path transform="translate(0,0)" d="M682.1053555289495,521.9842931904308C682.1053555289495,450.0082991261476 1486.9504394978842,450.0082991261476 1486.9504394978842,378.03230506186446" style="fill: none; stroke: #ccc; stroke-width: 0.5;"></path><path transform="translate(0,0)" d="M1583.9169814210438,521.9762114529287C1583.9169814210438,450.0042582573966 1486.9504394978842,450.0042582573966 1486.9504394978842,378.03230506186446" style="fill: none; stroke: #ccc; stroke-width: 0.5;"></path><path transform="translate(0,0)" d="M1273.978557003985,449.99905613613015C1273.978557003985,414.0156805989973 1486.9504394978842,414.0156805989973 1486.9504394978842,378.03230506186446" style="fill: none; stroke: #ccc; stroke-width: 0.5;"></path><path transform="translate(0,0)" d="M1698.9384962575523,449.99951544624633C1698.9384962575523,414.01591025405537 1486.9504394978842,414.01591025405537 1486.9504394978842,378.03230506186446" style="fill: none; stroke: #ccc; stroke-width: 0.5;"></path><path transform="translate(0,0)" d="M1487.0172672722572,450.0027812894166C1487.0172672722572,414.0175431756405 1486.9504394978842,414.0175431756405 1486.9504394978842,378.03230506186446" style="fill: none; stroke: #ccc; stroke-width: 0.5;"></path><path transform="translate(0,0)" d="M844.9613094648997,665.9492551736394C844.9613094648997,629.9519810748807 1049.9739138926789,629.9519810748807 1049.9739138926789,593.954706976122" style="fill: none; stroke: #ccc; stroke-width: 0.5;"></path><path transform="translate(0,0)" d="M1583.9169814210438,521.9762114529287C1583.9169814210438,485.98949637117266 1487.0172672722572,485.98949637117266 1487.0172672722572,450.0027812894166" style="fill: none; stroke: #ccc; stroke-width: 0.5;"></path><path transform="translate(0,0)" d="M844.9613094648997,665.9492551736394C844.9613094648997,593.9864349163797 1361.8611422070794,593.9864349163797 1361.8611422070794,522.0236146591202" style="fill: none; stroke: #ccc; stroke-width: 0.5;"></path><path transform="translate(0,0)" d="M844.9648286770289,594.0007833394801C844.9648286770289,557.9925382649554 682.1053555289495,557.9925382649554 682.1053555289495,521.9842931904308" style="fill: none; stroke: #ccc; stroke-width: 0.5;"></path><path transform="translate(0,0)" d="M844.9613094648997,665.9492551736394C844.9613094648997,593.9708535942382 899.9973365252596,593.9708535942382 899.9973365252596,521.992452014837" style="fill: none; stroke: #ccc; stroke-width: 0.5;"></path><path transform="translate(0,0)" d="M1049.9739138926789,593.954706976122C1049.9739138926789,557.9735794954795 899.9973365252596,557.9735794954795 899.9973365252596,521.992452014837" style="fill: none; stroke: #ccc; stroke-width: 0.5;"></path><path transform="translate(0,0)" d="M844.9613094648997,665.9492551736394C844.9613094648997,629.9750192565598 844.9648286770289,629.9750192565598 844.9648286770289,594.0007833394801" style="fill: none; stroke: #ccc; stroke-width: 0.5;"></path><path transform="translate(0,0)" d="M844.9613094648997,665.9492551736394C844.9613094648997,629.9584619026243 210.2296703446003,629.9584619026243 210.2296703446003,593.9676686316093" style="fill: none; stroke: #ccc; stroke-width: 0.5;"></path><path transform="translate(0,0)" d="M844.9613094648997,665.9492551736394C844.9613094648997,629.9592001723233 416.12847435060837,629.9592001723233 416.12847435060837,593.9691451710072" style="fill: none; stroke: #ccc; stroke-width: 0.5;"></path><path transform="translate(0,0)" d="M844.9613094648997,665.9492551736394C844.9613094648997,593.9764326937144 446.1133160742326,593.9764326937144 446.1133160742326,522.0036102137894" style="fill: none; stroke: #ccc; stroke-width: 0.5;"></path><path transform="translate(0,0)" d="M844.9613094648997,665.9492551736394C844.9613094648997,629.9589174241579 666.0100315797591,629.9589174241579 666.0100315797591,593.9685796746764" style="fill: none; stroke: #ccc; stroke-width: 0.5;"></path><path transform="translate(0,0)" d="M844.9613094648997,665.9492551736394C844.9613094648997,557.9927806382557 91.29045947123765,557.9927806382557 91.29045947123765,450.0363061028721" style="fill: none; stroke: #ccc; stroke-width: 0.5;"></path><path transform="translate(0,0)" d="M1583.9169814210438,521.9762114529287C1583.9169814210438,485.9878634495875 1698.9384962575523,485.9878634495875 1698.9384962575523,449.99951544624633" style="fill: none; stroke: #ccc; stroke-width: 0.5;"></path><path transform="translate(0,0)" d="M682.1053555289495,521.9842931904308C682.1053555289495,485.9891830208699 694.9647699064735,485.9891830208699 694.9647699064735,449.99407285130906" style="fill: none; stroke: #ccc; stroke-width: 0.5;"></path><path transform="translate(0,0)" d="M844.9613094648997,665.9492551736394C844.9613094648997,593.9976306423854 1180.8987177509111,593.9976306423854 1180.8987177509111,522.0460061111314" style="fill: none; stroke: #ccc; stroke-width: 0.5;"></path><path transform="translate(0,0)" d="M1049.9739138926789,593.954706976122C1049.9739138926789,558.0003565436267 1180.8987177509111,558.0003565436267 1180.8987177509111,522.0460061111314" style="fill: none; stroke: #ccc; stroke-width: 0.5;"></path></g><g class="mark-symbol role-mark nodes"><path transform="translate(974.9899999998922,18.02115)" d="M5,0A5,5,0,1,1,-5,0A5,5,0,1,1,5,0" style="fill: #3182bd;"></path><path transform="translate(577.0159845802214,378.0517697288339)" d="M5,0A5,5,0,1,1,-5,0A5,5,0,1,1,5,0" style="fill: #6baed6;"></path><path transform="translate(1273.978557003985,449.99905613613015)" d="M5,0A5,5,0,1,1,-5,0A5,5,0,1,1,5,0" style="fill: #9ecae1;"></path><path transform="translate(899.9773572533549,162.03552993617407)" d="M5,0A5,5,0,1,1,-5,0A5,5,0,1,1,5,0" style="fill: #c6dbef;"></path><path transform="translate(974.9924516830453,90.05319354551085)" d="M5,0A5,5,0,1,1,-5,0A5,5,0,1,1,5,0" style="fill: #e6550d;"></path><path transform="translate(1517.8465481909643,594.0055341796215)" d="M5,0A5,5,0,1,1,-5,0A5,5,0,1,1,5,0" style="fill: #fd8d3c;"></path><path transform="translate(1583.9169814210438,521.9762114529287)" d="M5,0A5,5,0,1,1,-5,0A5,5,0,1,1,5,0" style="fill: #fdae6b;"></path><path transform="translate(724.0122685108045,233.9964560670314)" d="M5,0A5,5,0,1,1,-5,0A5,5,0,1,1,5,0" style="fill: #fdd0a2;"></path><path transform="translate(674.9761404515162,306.0063577595395)" d="M5,0A5,5,0,1,1,-5,0A5,5,0,1,1,5,0" style="fill: #31a354;"></path><path transform="translate(1486.9504394978842,378.03230506186446)" d="M5,0A5,5,0,1,1,-5,0A5,5,0,1,1,5,0" style="fill: #74c476;"></path><path transform="translate(1049.9739138926789,593.954706976122)" d="M5,0A5,5,0,1,1,-5,0A5,5,0,1,1,5,0" style="fill: #a1d99b;"></path><path transform="translate(1487.0172672722572,450.0027812894166)" d="M5,0A5,5,0,1,1,-5,0A5,5,0,1,1,5,0" style="fill: #c7e9c0;"></path><path transform="translate(1361.8611422070794,522.0236146591202)" d="M5,0A5,5,0,1,1,-5,0A5,5,0,1,1,5,0" style="fill: #756bb1;"></path><path transform="translate(844.9613094648997,665.9492551736394)" d="M5,0A5,5,0,1,1,-5,0A5,5,0,1,1,5,0" style="fill: #9e9ac8;"></path><path transform="translate(682.1053555289495,521.9842931904308)" d="M5,0A5,5,0,1,1,-5,0A5,5,0,1,1,5,0" style="fill: #bcbddc;"></path><path transform="translate(899.9973365252596,521.992452014837)" d="M5,0A5,5,0,1,1,-5,0A5,5,0,1,1,5,0" style="fill: #dadaeb;"></path><path transform="translate(844.9648286770289,594.0007833394801)" d="M5,0A5,5,0,1,1,-5,0A5,5,0,1,1,5,0" style="fill: #636363;"></path><path transform="translate(210.2296703446003,593.9676686316093)" d="M5,0A5,5,0,1,1,-5,0A5,5,0,1,1,5,0" style="fill: #969696;"></path><path transform="translate(416.12847435060837,593.9691451710072)" d="M5,0A5,5,0,1,1,-5,0A5,5,0,1,1,5,0" style="fill: #bdbdbd;"></path><path transform="translate(446.1133160742326,522.0036102137894)" d="M5,0A5,5,0,1,1,-5,0A5,5,0,1,1,5,0" style="fill: #d9d9d9;"></path><path transform="translate(666.0100315797591,593.9685796746764)" d="M5,0A5,5,0,1,1,-5,0A5,5,0,1,1,5,0" style="fill: #3182bd;"></path><path transform="translate(91.29045947123765,450.0363061028721)" d="M5,0A5,5,0,1,1,-5,0A5,5,0,1,1,5,0" style="fill: #6baed6;"></path><path transform="translate(1698.9384962575523,449.99951544624633)" d="M5,0A5,5,0,1,1,-5,0A5,5,0,1,1,5,0" style="fill: #9ecae1;"></path><path transform="translate(694.9647699064735,449.99407285130906)" d="M5,0A5,5,0,1,1,-5,0A5,5,0,1,1,5,0" style="fill: #c6dbef;"></path><path transform="translate(1180.8987177509111,522.0460061111314)" d="M5,0A5,5,0,1,1,-5,0A5,5,0,1,1,5,0" style="fill: #e6550d;"></path></g><g class="mark-text role-mark labels"><text text-anchor="start" transform="translate(979.99,13)" style="font-family: sans-serif; font-size: 11px; font-weight: normal; fill: black;">Adapter_trimming</text><text text-anchor="start" transform="translate(581.99,373)" style="font-family: sans-serif; font-size: 11px; font-weight: normal; fill: black;">Align_to_reference_pt1</text><text text-anchor="start" transform="translate(1279,445)" style="font-family: sans-serif; font-size: 11px; font-weight: normal; fill: black;">Align_to_reference_pt2</text><text text-anchor="start" transform="translate(904.99,157)" style="font-family: sans-serif; font-size: 11px; font-weight: normal; fill: black;">Cleanup</text><text text-anchor="start" transform="translate(979.99,85)" style="font-family: sans-serif; font-size: 11px; font-weight: normal; fill: black;">Cut_primers</text><text text-anchor="start" transform="translate(1523,589)" style="font-family: sans-serif; font-size: 11px; font-weight: normal; fill: black;">HTML_IGVJs_generate_file</text><text text-anchor="start" transform="translate(1589,517)" style="font-family: sans-serif; font-size: 11px; font-weight: normal; fill: black;">HTML_IGVJs_variable_parts</text><text text-anchor="start" transform="translate(728.99,229)" style="font-family: sans-serif; font-size: 11px; font-weight: normal; fill: black;">Hugo_removal_pt1</text><text text-anchor="start" transform="translate(679.99,301)" style="font-family: sans-serif; font-size: 11px; font-weight: normal; fill: black;">Hugo_removal_pt2</text><text text-anchor="start" transform="translate(1492,373)" style="font-family: sans-serif; font-size: 11px; font-weight: normal; fill: black;">Index_ref</text><text text-anchor="start" transform="translate(1055,589)" style="font-family: sans-serif; font-size: 11px; font-weight: normal; fill: black;">MultiQC_report</text><text text-anchor="start" transform="translate(1492,445)" style="font-family: sans-serif; font-size: 11px; font-weight: normal; fill: black;">ORF_Analysis</text><text text-anchor="start" transform="translate(1367,517)" style="font-family: sans-serif; font-size: 11px; font-weight: normal; fill: black;">SNP_table</text><text text-anchor="start" transform="translate(849.99,661)" style="font-family: sans-serif; font-size: 11px; font-weight: normal; fill: black;">all</text><text text-anchor="start" transform="translate(686.99,517)" style="font-family: sans-serif; font-size: 11px; font-weight: normal; fill: black;">calculate_BoC</text><text text-anchor="start" transform="translate(904.99,517)" style="font-family: sans-serif; font-size: 11px; font-weight: normal; fill: black;">cleaned_quality_control</text><text text-anchor="start" transform="translate(849.99,589)" style="font-family: sans-serif; font-size: 11px; font-weight: normal; fill: black;">concat_boc</text><text text-anchor="start" transform="translate(214.99,589)" style="font-family: sans-serif; font-size: 11px; font-weight: normal; fill: black;">consensus_cov_1</text><text text-anchor="start" transform="translate(420.99,589)" style="font-family: sans-serif; font-size: 11px; font-weight: normal; fill: black;">consensus_cov_10</text><text text-anchor="start" transform="translate(450.99,517)" style="font-family: sans-serif; font-size: 11px; font-weight: normal; fill: black;">consensus_cov_100</text><text text-anchor="start" transform="translate(670.99,589)" style="font-family: sans-serif; font-size: 11px; font-weight: normal; fill: black;">consensus_cov_30</text><text text-anchor="start" transform="translate(95.992,445)" style="font-family: sans-serif; font-size: 11px; font-weight: normal; fill: black;">consensus_cov_5</text><text text-anchor="start" transform="translate(1704,445)" style="font-family: sans-serif; font-size: 11px; font-weight: normal; fill: black;">determine_GC_content</text><text text-anchor="start" transform="translate(699.99,445)" style="font-family: sans-serif; font-size: 11px; font-weight: normal; fill: black;">genomecoverage</text><text text-anchor="start" transform="translate(1186,517)" style="font-family: sans-serif; font-size: 11px; font-weight: normal; fill: black;">raw_quality_control</text></g></g></g></g></g></svg>