<?xml version="1.0" encoding="UTF-8" standalone="no"?><!DOCTYPE svg PUBLIC "-//W3C//DTD SVG 1.1//EN" "http://www.w3.org/Graphics/SVG/1.1/DTD/svg11.dtd"><svg width="100%" height="100%" viewBox="0 0 800 800" version="1.1" xmlns="http://www.w3.org/2000/svg" xmlns:xlink="http://www.w3.org/1999/xlink" xml:space="preserve" xmlns:serif="http://www.serif.com/" style="fill-rule:evenodd;clip-rule:evenodd;stroke-linejoin:round;stroke-miterlimit:2;"><g id="Objects"><g><path d="M431.446,503.293c10.139,18.506 26.23,36.02 48.418,51.325l83.557,57.638c18.802,12.968 50.574,13.791 70.975,1.839c20.4,-11.952 21.695,-32.152 2.894,-45.122l-12.477,-8.607l-71.08,-49.031l-89.406,-61.674l-0.156,0.092c-24.262,14.219 -35.283,34.139 -32.725,53.54" style="fill:#fb4b4e;fill-rule:nonzero;"/><path d="M634.028,229.134c-10.135,-18.508 -26.227,-36.022 -48.412,-51.326l-78.404,-54.083c-18.8,-12.967 -50.579,-13.79 -70.979,-1.84c-20.397,11.955 -21.693,32.155 -2.893,45.125l12.484,8.607l65.92,45.474l89.407,61.673l0.155,-0.091c24.269,-14.216 35.282,-34.138 32.722,-53.539" style="fill:#4f000b;fill-rule:nonzero;"/><path d="M528.332,60.276l-50.777,41.285c-2.567,2.086 -4.056,5.216 -4.056,8.524l0.005,429.28c-0.05,32.149 -8.406,63.212 -26.695,81.004c-19.859,19.321 -43.553,27.16 -77.292,27.16c-31.571,0 -56.712,-10.449 -75.431,-31.336c-18.72,-20.888 -28.086,-49.744 -28.086,-86.575l-0.133,-90.24c-0.007,-4.625 -5.378,-7.172 -8.962,-4.249l-42.331,34.502c-4.042,3.294 -9.841,3.294 -13.883,0l-42.312,-34.488c-3.589,-2.925 -8.964,-0.373 -8.964,4.257l0,90.779c0,64.551 20.15,115.81 60.449,153.798c40.302,37.985 93.507,56.977 159.59,56.977c70.407,0 124.766,-17.753 163.058,-53.273c38.299,-35.509 57.444,-84.925 57.444,-148.239l0,-429.366c0,-3.302 -1.484,-6.429 -4.044,-8.515l-50.643,-41.279c-1.011,-0.824 -2.242,-1.237 -3.472,-1.236c-1.228,0 -2.455,0.409 -3.465,1.23Z" style="fill:url(#_Linear1);fill-rule:nonzero;"/><path d="M634.027,229.083c29.595,53.935 8.365,116.367 -61.804,157.479l-0.073,-0.036l-107.807,63.167l0.003,0.003c-0.057,0.03 -0.106,0.058 -0.156,0.088c-24.284,14.227 -35.31,34.175 -32.723,53.591c-29.595,-53.939 -8.366,-116.37 61.803,-157.483l0.077,0.036l107.804,-63.164l-0.004,-0.005c0.052,-0.028 0.106,-0.055 0.159,-0.085c24.287,-14.231 35.307,-34.174 32.721,-53.591" style="fill:#52489c;fill-rule:nonzero;"/></g></g><defs><linearGradient id="_Linear1" x1="0" y1="0" x2="1" y2="0" gradientUnits="userSpaceOnUse" gradientTransform="matrix(479.332,-479.332,479.332,479.332,212.734,686.967)"><stop offset="0" style="stop-color:#e29b20;stop-opacity:1"/><stop offset="1" style="stop-color:#bb0319;stop-opacity:1"/></linearGradient></defs></svg>